<?xml version="1.0" encoding="iso-8859-1"?>
<!-- Generator: Adobe Illustrator 19.0.0, SVG Export Plug-In . SVG Version: 6.00 Build 0)  -->
<svg version="1.1" id="Layer_1" xmlns="http://www.w3.org/2000/svg" xmlns:xlink="http://www.w3.org/1999/xlink" x="0px" y="0px"
	 viewBox="0 0 512 512" style="enable-background:new 0 0 512 512;" xml:space="preserve" transform="rotate(180)">
<rect x="70.12" y="223.335" transform="matrix(-0.7071 -0.7071 0.7071 -0.7071 9.8401 622.3912)" style="fill:#A5F2E5;" width="127.403" height="171.645"/>
<path style="fill:#62D9C7;" d="M373.605,214.501L256.213,97.109l-90.085,90.086l227.698,227.698l90.085-90.086l-51.354-51.354
	c-4.544-4.544-4.544-11.911,0-16.453l0,0l-42.498-42.498C385.514,219.043,378.148,219.043,373.605,214.501z"/>
<path d="M508.592,316.58l-59.581-59.581c-4.545-4.544-11.911-4.544-16.454,0l0,0c-4.544,4.544-4.544,11.911,0,16.453l51.354,51.354
	l-90.085,90.086L166.129,187.194l90.085-90.085l117.391,117.391c4.545,4.544,11.909,4.544,16.454,0l0,0
	c4.544-4.544,4.544-11.911,0-16.453L264.441,72.429c-2.183-2.183-5.141-3.408-8.228-3.408c-0.071,0-0.143,0.009-0.214,0.011
	c-0.071-0.002-0.143-0.011-0.214-0.011c-3.085,0-6.044,1.225-8.228,3.408L3.407,316.58C1.225,318.761,0,321.721,0,324.806
	s1.225,6.045,3.407,8.226l106.54,106.539c2.273,2.271,5.249,3.408,8.228,3.408c2.977,0,5.955-1.136,8.228-3.408l129.598-129.598
	l129.6,129.598c2.183,2.183,5.141,3.408,8.228,3.408c3.087,0,6.044-1.226,8.228-3.408l106.539-106.539
	C513.135,328.49,513.135,321.123,508.592,316.58z M149.46,203.434l90.086,90.086L118.175,414.892l-90.086-90.086L149.46,203.434z"/>
<g>
</g>
<g>
</g>
<g>
</g>
<g>
</g>
<g>
</g>
<g>
</g>
<g>
</g>
<g>
</g>
<g>
</g>
<g>
</g>
<g>
</g>
<g>
</g>
<g>
</g>
<g>
</g>
<g>
</g>
</svg>
