<?xml version="1.0" encoding="iso-8859-1"?>
<!-- Generator: Adobe Illustrator 19.0.0, SVG Export Plug-In . SVG Version: 6.00 Build 0)  -->
<svg version="1.1" id="Layer_1" xmlns="http://www.w3.org/2000/svg" xmlns:xlink="http://www.w3.org/1999/xlink" x="0px" y="0px"
	 viewBox="0 0 512 512" style="enable-background:new 0 0 512 512;" xml:space="preserve">
<rect x="117.018" y="70.117" transform="matrix(-0.7071 -0.7071 0.7071 -0.7071 251.6467 371.8741)" style="fill:#A5F2E5;" width="171.645" height="127.404"/>
<path d="M439.573,247.56L195.42,3.408C193.237,1.225,190.279,0,187.194,0s-6.044,1.225-8.228,3.408L72.427,109.947
	c-4.544,4.544-4.544,11.911,0,16.453l129.6,129.6l-129.6,129.6c-2.181,2.181-3.407,5.141-3.407,8.226
	c0,3.085,1.225,6.045,3.407,8.226l106.539,106.539c2.273,2.273,5.249,3.408,8.228,3.408c2.977,0,5.955-1.135,8.228-3.408
	l59.582-59.581c4.544-4.544,4.544-11.909,0-16.453l0,0c-4.544-4.542-11.909-4.544-16.453,0l-51.356,51.355L97.11,393.828
	l227.699-227.699l90.085,90.085L297.501,373.606c-4.544,4.544-4.544,11.911,0,16.453l0,0c4.544,4.544,11.909,4.542,16.454,0
	l125.62-125.618c2.181-2.181,3.407-5.141,3.407-8.226c0-0.07-0.009-0.137-0.011-0.206
	C443.028,252.956,441.901,249.888,439.573,247.56z M187.194,28.087l121.374,121.374l-90.086,90.085L97.107,118.174L187.194,28.087z"
	/>
<path style="fill:#62D9C7;" d="M297.499,373.606l117.393-117.392l-90.085-90.085l-227.7,227.697l90.085,90.085l51.356-51.355
	c4.542-4.544,11.909-4.544,16.453,0l42.498-42.498l0,0C292.956,385.516,292.956,378.149,297.499,373.606z"/>
<g>
</g>
<g>
</g>
<g>
</g>
<g>
</g>
<g>
</g>
<g>
</g>
<g>
</g>
<g>
</g>
<g>
</g>
<g>
</g>
<g>
</g>
<g>
</g>
<g>
</g>
<g>
</g>
<g>
</g>
</svg>
